<svg width="61" height="61" viewBox="0 0 61 61" fill="none" xmlns="http://www.w3.org/2000/svg">
<path d="M35.4639 4.78851C34.9635 3.91383 34.2409 3.1869 33.3692 2.68133C32.4975 2.17575 31.5077 1.90948 30.5 1.90948C29.4923 1.90948 28.5025 2.17575 27.6308 2.68133C26.7591 3.1869 26.0365 3.91383 25.5361 4.78851L19.0396 16.1498C18.7884 16.5891 18.7219 17.1103 18.8549 17.5986C18.9879 18.0869 19.3094 18.5024 19.7488 18.7537C20.1881 19.005 20.7093 19.0714 21.1976 18.9384C21.6859 18.8054 22.1014 18.4839 22.3527 18.0446L28.8454 6.67951C29.0122 6.38795 29.2531 6.14564 29.5436 5.97712C29.8342 5.80859 30.1641 5.71984 30.5 5.71984C30.8359 5.71984 31.1658 5.80859 31.4564 5.97712C31.747 6.14564 31.9879 6.38795 32.1546 6.67951L41.8384 23.6223L37.0499 22.3375C36.5615 22.206 36.0409 22.274 35.6026 22.5263C35.1644 22.7787 34.8443 23.1949 34.7128 23.6833C34.5814 24.1716 34.6493 24.6922 34.9017 25.1305C35.1541 25.5688 35.5703 25.8889 36.0586 26.0203L45.2658 28.487C45.5077 28.5522 45.76 28.5691 46.0083 28.5367C46.2567 28.5044 46.4962 28.4234 46.7132 28.2984C46.9303 28.1734 47.1206 28.0069 47.2732 27.8083C47.4259 27.6098 47.5379 27.3831 47.6029 27.1412L50.0696 17.934C50.1344 17.6922 50.151 17.44 50.1184 17.1917C50.0857 16.9435 50.0045 16.7042 49.8794 16.4873C49.7542 16.2705 49.5876 16.0804 49.389 15.928C49.1904 15.7755 48.9637 15.6637 48.7219 15.5989C48.4801 15.534 48.2278 15.5175 47.9796 15.5501C47.7314 15.5827 47.492 15.6639 47.2752 15.7891C47.0583 15.9142 46.8683 16.0809 46.7158 16.2795C46.5634 16.4781 46.4516 16.7048 46.3867 16.9466L45.1172 21.6817L35.4639 4.78851ZM11.3346 29.6346L6.54988 30.9194C6.0615 31.0508 5.5409 30.9829 5.10262 30.7305C4.66434 30.4781 4.34426 30.062 4.21281 29.5736C4.08137 29.0852 4.14931 28.5646 4.4017 28.1263C4.65409 27.688 5.07025 27.368 5.55863 27.2365L14.7696 24.7698C15.2575 24.6393 15.7772 24.7078 16.2147 24.9601C16.6521 25.2124 16.9716 25.628 17.1029 26.1156L19.5696 35.3228C19.7005 35.8112 19.6321 36.3316 19.3793 36.7695C19.1266 37.2075 18.7102 37.5271 18.2219 37.658C17.7335 37.7889 17.2131 37.7205 16.7752 37.4678C16.3372 37.215 16.0176 36.7987 15.8867 36.3103L14.6171 31.5751L4.91432 48.556C4.74874 48.8459 4.66219 49.1742 4.66332 49.508C4.66444 49.8418 4.75321 50.1695 4.92074 50.4582C5.08827 50.7469 5.32869 50.9866 5.61794 51.1533C5.90718 51.3199 6.23512 51.4077 6.56894 51.4078H19.0625C19.5681 51.4078 20.0529 51.6086 20.4104 51.9661C20.7679 52.3236 20.9688 52.8085 20.9688 53.314C20.9688 53.8196 20.7679 54.3045 20.4104 54.662C20.0529 55.0194 19.5681 55.2203 19.0625 55.2203H6.56894C5.56748 55.22 4.58367 54.9567 3.71592 54.4567C2.84818 53.9568 2.12693 53.2377 1.62434 52.3715C1.12176 51.5053 0.855448 50.5223 0.852064 49.5209C0.848681 48.5194 1.10834 47.5346 1.60506 46.665L11.3346 29.6346ZM52.8527 35.2123C52.7319 34.9887 52.5676 34.7916 52.3695 34.6324C52.1713 34.4733 51.9434 34.3554 51.699 34.2856C51.4546 34.2158 51.1988 34.1956 50.9465 34.2262C50.6942 34.2567 50.4506 34.3374 50.2299 34.4635C50.0093 34.5896 49.8161 34.7585 49.6617 34.9604C49.5073 35.1622 49.3948 35.3929 49.3308 35.6388C49.2669 35.8848 49.2527 36.141 49.2892 36.3925C49.3258 36.644 49.4122 36.8857 49.5435 37.1033L56.0857 48.556C56.2513 48.8459 56.3379 49.1742 56.3367 49.508C56.3356 49.8418 56.2468 50.1695 56.0793 50.4582C55.9118 50.7469 55.6714 50.9866 55.3821 51.1533C55.0929 51.3199 54.7649 51.4077 54.4311 51.4078H33.1955L35.6621 48.9449C36.0196 48.587 36.2202 48.1017 36.2198 47.5958C36.2195 47.09 36.0182 46.605 35.6602 46.2476C35.483 46.0706 35.2726 45.9302 35.0412 45.8345C34.8097 45.7389 34.5616 45.6897 34.3112 45.6899C33.8053 45.6902 33.3203 45.8915 32.9629 46.2495L27.2441 51.9682C27.0663 52.1447 26.9251 52.3547 26.8288 52.586C26.7324 52.8173 26.6828 53.0654 26.6828 53.3159C26.6828 53.5665 26.7324 53.8146 26.8288 54.0459C26.9251 54.2772 27.0663 54.4872 27.2441 54.6637L32.9629 60.3824C33.3203 60.7404 33.8053 60.9416 34.3112 60.942C34.5616 60.9422 34.8097 60.893 35.0412 60.7973C35.2726 60.7016 35.483 60.5613 35.6602 60.3843C35.8375 60.2073 35.9781 59.9972 36.0741 59.7658C36.1701 59.5345 36.2197 59.2865 36.2198 59.036C36.22 58.7856 36.1709 58.5375 36.0752 58.306C35.9795 58.0746 35.8391 57.8642 35.6621 57.687L33.1955 55.2203H54.4311C55.4326 55.22 56.4164 54.9567 57.2841 54.4567C58.1519 53.9568 58.8731 53.2377 59.3757 52.3715C59.8783 51.5053 60.1446 50.5223 60.148 49.5209C60.1514 48.5194 59.8917 47.5346 59.395 46.665L52.8527 35.2123Z" fill="#E9DAC1"/>
</svg>
